<svg width="85" height="13" viewBox="0 0 85 13" fill="none" xmlns="http://www.w3.org/2000/svg">
<path d="M0.498478 5.03765C0.498316 5.03811 0.498153 5.03853 0.497997 5.03889C0.497681 5.03961 0.49747 5.03995 0.497475 5.03993C0.497483 5.03991 0.498188 5.03879 0.500222 5.03687L0.499075 5.03565L0.498478 5.03765ZM0.498478 5.03765L0.491561 5.03025L0.491531 5.03022L0.489139 5.02766L0.157424 4.67288M0.498478 5.03765L0.167829 5.39264C0.0623464 5.29842 0.0019997 5.16969 4.88064e-05 5.03473C-0.00190209 4.89977 0.0547024 4.76962 0.157424 4.67288M0.157424 4.67288C0.242393 4.59344 0.353372 4.541 0.474755 4.52511L0.157424 4.67288ZM9.36888 4.17583L9.48995 4.40073L9.74314 4.43444L14.1444 5.02054C14.1446 5.02057 14.1447 5.02059 14.1449 5.02061C14.1579 5.02243 14.1677 5.02592 14.1748 5.02954L11.0003 7.86543L10.79 8.05325L10.8419 8.33035L11.5918 12.3345C11.586 12.3393 11.5746 12.3459 11.5553 12.349L11.5547 12.3491C11.5326 12.3526 11.5122 12.3483 11.5005 12.3426L11.4983 12.3416L7.56032 10.4444L7.34332 10.3399L7.12632 10.4444L3.18829 12.3416L3.18755 12.3419C3.17524 12.3479 3.15839 12.3517 3.13981 12.3505C3.12125 12.3493 3.10685 12.3434 3.09805 12.3376C3.09674 12.3367 3.09563 12.3359 3.09467 12.3351L3.84473 8.33035L3.89663 8.05325L3.68638 7.86543L0.51167 5.02935C0.518828 5.02565 0.528148 5.02239 0.53965 5.02089L0.540755 5.02074L4.9435 4.43444L5.19669 4.40073L5.31776 4.17583L7.28468 0.522106C7.28508 0.521457 7.28647 0.519473 7.29017 0.516565C7.29489 0.512849 7.30286 0.508133 7.31421 0.504615C7.3383 0.497154 7.36365 0.499026 7.38349 0.508L7.38404 0.508251C7.39627 0.513765 7.4004 0.519398 7.40074 0.51984C7.40075 0.519859 7.40076 0.519869 7.40076 0.519868L9.36888 4.17583ZM7.40049 0.519384L7.40052 0.519431L7.40049 0.519384Z" fill="#FFD600" stroke="black"/>
<path d="M26.4891 4.15189L26.6026 4.39302L26.8662 4.43313L30.7079 5.0178C30.7082 5.01844 30.7084 5.01914 30.7086 5.0199C30.7091 5.0218 30.7094 5.02464 30.7088 5.02899L30.7088 5.02899L30.7081 5.03429C30.7073 5.0398 30.7052 5.04271 30.7043 5.04362C30.7043 5.04365 30.7043 5.04367 30.7043 5.04369L27.9179 7.88844L27.7407 8.06931L27.7817 8.31917L28.4401 12.3372L25.025 10.4569L24.7838 10.3241L24.5427 10.4569L21.1275 12.3372L21.7859 8.31917L21.8269 8.06931L21.6497 7.88844L18.8624 5.04277L18.8624 5.04276C18.8624 5.04277 18.8615 5.04174 18.8605 5.03922C18.8593 5.03648 18.8585 5.03277 18.8584 5.02841C18.8583 5.02425 18.8591 5.0206 18.8601 5.01774L22.7014 4.43313L22.965 4.39302L23.0785 4.15189L24.7838 0.5317L26.4891 4.15189ZM21.2925 8.23831L20.634 12.2566L18.8612 5.01451L18.8461 5.00043L18.8447 4.99909L18.4961 4.67288C18.4063 4.76962 18.3567 4.89977 18.3584 5.03473C18.3601 5.16969 18.413 5.29842 18.5052 5.39264L21.2925 8.23831Z" fill="white" stroke="black"/>
<path d="M35.3788 5.03765C35.3787 5.03811 35.3785 5.03853 35.3784 5.03889C35.3781 5.03961 35.3778 5.03995 35.3778 5.03993C35.3779 5.03991 35.3786 5.03879 35.3806 5.03687L35.3794 5.03565L35.3788 5.03765ZM35.3788 5.03765L35.3719 5.03025L35.3719 5.03022L35.3695 5.02766L35.0378 4.67288M35.3788 5.03765L35.0482 5.39264C34.9427 5.29842 34.8824 5.16969 34.8804 5.03473C34.8785 4.89977 34.9351 4.76962 35.0378 4.67288M35.0378 4.67288C35.1228 4.59344 35.2337 4.541 35.3551 4.52511L35.0378 4.67288ZM44.2492 4.17583L44.3703 4.40073L44.6235 4.43444L49.0248 5.02054C49.025 5.02057 49.0251 5.02059 49.0253 5.02061C49.0383 5.02243 49.048 5.02592 49.0551 5.02954L45.8806 7.86543L45.6704 8.05325L45.7223 8.33035L46.4722 12.3345C46.4663 12.3393 46.4549 12.3459 46.4357 12.349L46.435 12.3491C46.413 12.3526 46.3926 12.3483 46.3809 12.3426L46.3787 12.3416L42.4407 10.4444L42.2237 10.3399L42.0067 10.4444L38.0687 12.3416L38.0679 12.3419C38.0556 12.3479 38.0388 12.3517 38.0202 12.3505C38.0016 12.3493 37.9872 12.3434 37.9784 12.3376C37.9771 12.3367 37.976 12.3359 37.975 12.3351L38.7251 8.33035L38.777 8.05325L38.5668 7.86543L35.392 5.02935C35.3992 5.02565 35.4085 5.02239 35.42 5.02089L35.4211 5.02074L39.8239 4.43444L40.0771 4.40073L40.1981 4.17583L42.1651 0.522106C42.1655 0.521457 42.1668 0.519473 42.1705 0.516565C42.1753 0.512849 42.1832 0.508133 42.1946 0.504615C42.2187 0.497154 42.244 0.499026 42.2639 0.508L42.2644 0.508251C42.2766 0.513765 42.2808 0.519398 42.2811 0.51984C42.2811 0.519859 42.2811 0.519869 42.2811 0.519868L44.2492 4.17583ZM42.2809 0.519384L42.2809 0.519431L42.2809 0.519384Z" fill="white" stroke="black"/>
<path d="M61.3694 4.15189L61.483 4.39302L61.7465 4.43313L65.5883 5.0178C65.5886 5.01844 65.5888 5.01914 65.589 5.0199C65.5894 5.0218 65.5898 5.02464 65.5892 5.02899L65.5891 5.02899L65.5884 5.03429C65.5877 5.0398 65.5855 5.04271 65.5847 5.04362C65.5847 5.04365 65.5846 5.04367 65.5846 5.04369L62.7983 7.88844L62.6211 8.06931L62.662 8.31917L63.3205 12.3372L59.9053 10.4569L59.6642 10.3241L59.423 10.4569L56.0078 12.3372L56.6663 8.31917L56.7072 8.06931L56.5301 7.88844L53.7428 5.04277L53.7428 5.04276C53.7428 5.04277 53.7419 5.04174 53.7408 5.03922C53.7397 5.03648 53.7388 5.03277 53.7388 5.02841C53.7387 5.02425 53.7394 5.0206 53.7405 5.01774L57.5818 4.43313L57.8453 4.39302L57.9589 4.15189L59.6642 0.5317L61.3694 4.15189ZM56.1729 8.23831L55.5144 12.2566L53.7416 5.01451L53.7265 5.00043L53.7251 4.99909L53.3765 4.67288C53.2866 4.76962 53.2371 4.89977 53.2388 5.03473C53.2405 5.16969 53.2933 5.29842 53.3856 5.39264L56.1729 8.23831Z" fill="white" stroke="black"/>
<path d="M70.2597 5.03765C70.2595 5.03811 70.2594 5.03853 70.2592 5.03889C70.2589 5.03961 70.2587 5.03995 70.2587 5.03993C70.2587 5.03991 70.2594 5.03879 70.2615 5.03687L70.2603 5.03565L70.2597 5.03765ZM70.2597 5.03765L70.2528 5.03025L70.2528 5.03022L70.2504 5.02766L69.9187 4.67288M70.2597 5.03765L69.9291 5.39264C69.8236 5.29842 69.7632 5.16969 69.7613 5.03473C69.7593 4.89977 69.8159 4.76962 69.9187 4.67288M69.9187 4.67288C70.0036 4.59344 70.1146 4.541 70.236 4.52511L69.9187 4.67288ZM79.1301 4.17583L79.2512 4.40073L79.5044 4.43444L83.9057 5.02054C83.9058 5.02057 83.906 5.02059 83.9061 5.02061C83.9191 5.02243 83.9289 5.02592 83.936 5.02954L80.7615 7.86543L80.5512 8.05325L80.6031 8.33035L81.3531 12.3345C81.3472 12.3393 81.3358 12.3459 81.3166 12.349L81.3159 12.3491C81.2939 12.3526 81.2734 12.3483 81.2617 12.3426L81.2596 12.3416L77.3216 10.4444L77.1045 10.3399L76.8875 10.4444L72.9495 12.3416L72.9488 12.3419C72.9365 12.3479 72.9196 12.3517 72.901 12.3505C72.8825 12.3493 72.8681 12.3434 72.8593 12.3376C72.858 12.3367 72.8569 12.3359 72.8559 12.3351L73.606 8.33035L73.6579 8.05325L73.4476 7.86543L70.2729 5.02935C70.2801 5.02565 70.2894 5.02239 70.3009 5.02089L70.302 5.02074L74.7047 4.43444L74.9579 4.40073L75.079 4.17583L77.0459 0.522106C77.0463 0.521457 77.0477 0.519473 77.0514 0.516565C77.0561 0.512849 77.0641 0.508133 77.0754 0.504615C77.0995 0.497154 77.1249 0.499026 77.1447 0.508L77.1453 0.508251C77.1575 0.513765 77.1616 0.519398 77.162 0.51984C77.162 0.519859 77.162 0.519869 77.162 0.519868L79.1301 4.17583ZM77.1617 0.519384L77.1617 0.519431L77.1617 0.519384Z" fill="white" stroke="black"/>
</svg>
